<svg width="32" height="28" viewBox="0 0 32 28" fill="none" xmlns="http://www.w3.org/2000/svg">
<g clip-path="url(#clip0_49_1817)">
<path d="M15.1775 17.0133C13.3941 14.8695 9.33301 9.54844 9.33301 6.5625C9.33301 2.93836 12.3163 0 15.9997 0C19.683 0 22.6663 2.93836 22.6663 6.5625C22.6663 9.54844 18.6052 14.8695 16.8219 17.0133C16.3941 17.5875 15.6052 17.5875 15.1775 17.0133ZM15.9997 8.3125C17.2275 8.3125 18.2219 7.33359 18.2219 6.125C18.2219 4.91695 17.2275 3.9375 15.9997 3.9375C14.7719 3.9375 13.7775 4.91695 13.7775 6.125C13.7775 7.33359 14.7719 8.3125 15.9997 8.3125Z" fill="white"/>
<path opacity="0.4" d="M23.1111 27.5077V10.9593C23.3056 10.5819 23.4833 10.2101 23.6444 9.83818C23.6722 9.76708 23.7 9.70146 23.7278 9.63037L30.1722 7.09287C31.05 6.74833 32 7.38271 32 8.3124V23.1218C32 23.6577 31.6667 24.139 31.1611 24.3413L23.1111 27.5077ZM0.838333 10.2429L7.64444 7.56318C7.77778 8.33974 8.05 9.11083 8.35556 9.83818C8.51667 10.2101 8.69444 10.5819 8.88889 10.9593V24.7077L1.82833 27.4913C0.952778 27.7866 0 27.2015 0 26.2718V11.4624C0 10.9265 0.331944 10.396 0.838333 10.2429ZM21.3333 27.5788L10.6167 24.5765V13.9452C11.8056 15.6569 13.0167 17.2046 13.7889 18.1069C14.9278 19.5561 17.0722 19.5561 18.2111 18.1069C18.9833 17.2046 20.1944 15.6569 21.3333 13.9452V27.5788Z" fill="white"/>
</g>
<defs>
<clipPath id="clip0_49_1817">
<rect width="32" height="28" fill="white"/>
</clipPath>
</defs>
</svg>
