<svg width="309" height="235" viewBox="0 0 309 235" fill="none" xmlns="http://www.w3.org/2000/svg">
<path d="M309 67C293.923 67 287.5 60.1287 287.5 44C287.5 60.1287 281.077 67 266 67C281.077 67 287.5 73.8713 287.5 90C287.5 73.8713 293.923 67 309 67Z" fill="#ECECFE"/>
<path d="M280 180C264.923 180 258.5 173.129 258.5 157C258.5 173.129 252.077 180 237 180C252.077 180 258.5 186.871 258.5 203C258.5 186.871 264.923 180 280 180Z" fill="#ECECFE"/>
<path d="M178 212C162.923 212 156.5 205.129 156.5 189C156.5 205.129 150.077 212 135 212C150.077 212 156.5 218.871 156.5 235C156.5 218.871 162.923 212 178 212Z" fill="#ECECFE"/>
<path d="M208 23C192.923 23 186.5 16.1287 186.5 0C186.5 16.1287 180.077 23 165 23C180.077 23 186.5 29.8713 186.5 46C186.5 29.8713 192.923 23 208 23Z" fill="#ECECFE"/>
<path d="M58 60C42.9232 60 36.5 53.1287 36.5 37C36.5 53.1287 30.0768 60 15 60C30.0768 60 36.5 66.8713 36.5 83C36.5 66.8713 42.9232 60 58 60Z" fill="#ECECFE"/>
<path d="M43 207C27.9232 207 21.5 200.129 21.5 184C21.5 200.129 15.0768 207 0 207C15.0768 207 21.5 213.871 21.5 230C21.5 213.871 27.9232 207 43 207Z" fill="#ECECFE"/>
<path d="M128 121C112.923 121 106.5 114.129 106.5 98C106.5 114.129 100.077 121 85 121C100.077 121 106.5 127.871 106.5 144C106.5 127.871 112.923 121 128 121Z" fill="#ECECFE"/>
</svg>
