<svg width="28" height="28" viewBox="0 0 28 28" fill="none" xmlns="http://www.w3.org/2000/svg">
<g clip-path="url(#clip0_49_1823)">
<path d="M9.89262 18.2819L8.96293 17.1553C8.48266 16.5675 7.66848 16.3667 6.96957 16.6642L1.03598 19.2083C0.275274 19.5416 -0.140898 20.3644 0.0450396 21.1672L0.268274 22.1346L9.89262 18.2819ZM26.6762 1.31511L24.4526 0.801975L20.0984 11.3731C18.239 15.1602 15.1618 18.2364 11.3757 20.0957L0.804649 24.4516L1.31773 26.6752C1.49552 27.4545 2.18124 27.9997 2.98296 27.9997C16.7806 27.9997 28.0025 16.7778 28.0025 2.98018C27.9996 2.17862 27.4528 1.49394 26.6762 1.31511ZM18.2871 9.88737L22.135 0.267842L21.167 0.0445531C20.3691 -0.139908 19.5379 0.274623 19.2097 1.03494L16.6629 6.96706C16.3605 7.66597 16.5642 8.48628 17.1537 8.96151L18.2871 9.88737Z" fill="white"/>
<path opacity="0.4" d="M11.3753 20.0975L9.89219 18.2841L0.316406 22.1341L0.851578 24.4534L11.3753 20.0975ZM24.4511 0.802152L22.1318 0.26709L18.2878 9.88739L20.1002 11.3732L24.4511 0.802152Z" fill="white"/>
</g>
<defs>
<clipPath id="clip0_49_1823">
<rect width="28" height="28" fill="white"/>
</clipPath>
</defs>
</svg>
