<svg width="28" height="28" viewBox="0 0 28 28" fill="none" xmlns="http://www.w3.org/2000/svg">
<g clip-path="url(#clip0_49_1820)">
<path d="M16.5813 21.8531C15.8102 22.4547 14.9023 22.7555 14 22.7555C13.0977 22.7555 12.192 22.457 11.4209 21.8564L0 12.9719V25.375C0 26.8242 1.17523 28 2.625 28H25.375C26.8248 28 28 26.8248 28 25.4242V12.9719L16.5813 21.8531ZM27.1195 11.4352C27.8272 10.8773 27.8791 9.78687 27.2502 9.14102C27.1708 9.05942 27.0854 8.98291 26.9939 8.9122C26.3266 8.38906 25.7141 7.90781 24.5 7.00547V13.475C24.5 13.475 27.1195 11.4406 27.1195 11.4352ZM14.0219 0H13.9781C12.9697 0 11.6287 1.00242 10.6608 1.75H17.3436C16.3734 1.00242 15.0336 0 14.0219 0ZM0.884844 11.4406L3.5 13.475V7.00547C2.28594 7.90781 1.67125 8.38906 1.00516 8.91406C0.913281 8.98516 0.827969 9.06172 0.748672 9.14375C0.11982 9.73984 0.177188 10.8828 0.884844 11.4406C0.888672 11.4461 0.881016 11.4406 0.884844 11.4406ZM9.625 12.2008H18.375C18.8582 12.2008 19.25 11.809 19.25 11.3258C19.25 10.8425 18.8582 10.5 18.375 10.5H9.625C9.14178 10.5 8.75 10.8917 8.75 11.3258C8.75 11.8563 9.14375 12.2008 9.625 12.2008ZM9.625 8.70078H18.375C18.8582 8.70078 19.25 8.309 19.25 7.875C19.25 7.39167 18.8582 7.04922 18.375 7.04922H9.625C9.14178 7.04922 8.75 7.44089 8.75 7.875C8.75 8.35625 9.14375 8.70078 9.625 8.70078Z" fill="white"/>
<path opacity="0.4" d="M22.75 1.75H5.25C4.28367 1.75 3.5 2.53367 3.5 3.45078V13.475L12.4961 20.4695C13.382 21.1586 14.6218 21.1586 15.5072 20.4695L24.5 13.475V3.5C24.5 2.53367 23.718 1.75 22.75 1.75ZM18.375 12.2008H9.625C9.14178 12.2008 8.75 11.809 8.75 11.3258C8.75 10.8425 9.14178 10.5 9.625 10.5H18.375C18.8582 10.5 19.25 10.8917 19.25 11.3258C19.25 11.8563 18.8562 12.2008 18.375 12.2008ZM18.375 8.70078H9.625C9.14178 8.70078 8.75 8.309 8.75 7.875C8.75 7.39167 9.14178 7.04922 9.625 7.04922H18.375C18.8582 7.04922 19.25 7.44089 19.25 7.875C19.25 8.35625 18.8562 8.70078 18.375 8.70078Z" fill="white"/>
</g>
<defs>
<clipPath id="clip0_49_1820">
<rect width="28" height="28" fill="white"/>
</clipPath>
</defs>
</svg>
